# xmcd
#
# Track frame offsets:
#	150
#	14327
#	33670
#	47360
#	64327
#	79240
#	95247
#	111477
#	124285
#	138910
#	150870
#	165680
#	181577
#	197480
#	210395
#	225165
#	243080
#	261262
#	276127
#	294887
#
# Disc length: 4442 seconds
#
# Revision: 1
# Processed by: cddbd v1.5.2PL0 Copyright (c) Steve Scherf et al.
# Submitted via: audiograbber 1.83.01
#
DISCID=0a115814
DTITLE=Forró Da Tropical - Os Melhores Do Ano Do Forró 2
DYEAR=2005
DGENRE=Forró
TTITLE0=Ciro Aguiar - Pout-Porri Luiz Gonzaga
TTITLE1=Calcinha Preta - Hello
TTITLE2=Mastruz Com Leite -Me Faz Um Dengo
TTITLE3=Caviar Com Rapadura - Mexe Mexe
TTITLE4=Calango Aceso - Namoro Na Internet
TTITLE5=Banda Magníficos - Só Depende De Nós
TTITLE6=Limão Com Mel - Fica Comigo
TTITLE7=Forró Mel Com Terra - Menino
TTITLE8=Francis Lopes -  A Nordestina
TTITLE9=Frank Aguiar - Homenagem Às Sogras
TTITLE10=Wesley Dos Teclados - Mainha/Me Faz Um Dengo
TTITLE11=Lairton - Tentei Te Esquecer
TTITLE12=Robério - Namoro Novo
TTITLE13=Washington Brasileiro - Muita Coisa Na Cabeça
TTITLE14=Petrúcio Amorim - Minha Home Page
TTITLE15=Zezinho Da Ema - Meu Viver
TTITLE16=Edigar Mão Branca - Gabiraba
TTITLE17=Forró Saborear - Saborear
TTITLE18=Amazan - Me Enganei Com Minha Noiva
TTITLE19=Catuaba Com Amendoim - Saga De Um Vaqueiro
EXTD=
EXTT0=
EXTT1=
EXTT2=
EXTT3=
EXTT4=
EXTT5=
EXTT6=
EXTT7=
EXTT8=
EXTT9=
EXTT10=
EXTT11=
EXTT12=
EXTT13=
EXTT14=
EXTT15=
EXTT16=
EXTT17=
EXTT18=
EXTT19=
PLAYORDER=
